<svg width="41" height="41" viewBox="0 0 41 41" fill="none" xmlns="http://www.w3.org/2000/svg">
<circle cx="20.5848" cy="20.1204" r="20.1204" fill="#FAFAFA"/>
<g clip-path="url(#clip0_331_223)">
<path d="M40.1035 24.9862C37.4153 35.7708 26.4888 42.3266 15.7196 39.6381C4.93477 36.9498 -1.62103 26.0238 1.0674 15.2548C3.75568 4.47029 14.6663 -2.08551 25.4512 0.602928C36.2203 3.27549 42.792 14.2015 40.1035 24.9862Z" fill="url(#paint0_linear_331_223)"/>
<path d="M30.1643 17.6134C30.5573 14.9411 28.5295 13.495 25.7315 12.5361L26.6432 8.905L24.4425 8.35483L23.5623 11.8916C22.9807 11.7502 22.3833 11.6087 21.786 11.4829L22.6663 7.93042L20.4656 7.38025L19.5696 10.9956C19.0823 10.8856 18.6108 10.7756 18.1549 10.6655V10.6498L15.1054 9.8953L14.5238 12.2532C14.5238 12.2532 16.1586 12.6304 16.1271 12.6461C17.0231 12.8662 17.1803 13.4635 17.1489 13.9351L16.1114 18.0692C16.1743 18.0849 16.2529 18.1007 16.3472 18.1478C16.2686 18.1321 16.19 18.1164 16.1114 18.0849L14.6653 23.8696C14.5552 24.1368 14.2723 24.5455 13.6592 24.3883C13.675 24.4197 12.0559 23.9953 12.0559 23.9953L10.9556 26.5261L13.8322 27.2492C14.3666 27.3906 14.8853 27.5164 15.4041 27.6579L14.4924 31.3204L16.693 31.8706L17.6047 28.2395C18.2021 28.3967 18.7994 28.5538 19.3653 28.6953L18.4693 32.3107L20.67 32.8609L21.5817 29.1983C25.3542 29.9057 28.1837 29.6227 29.3626 26.2117C30.3215 23.4766 29.3154 21.889 27.3348 20.8515C28.7967 20.5214 29.8813 19.5625 30.1643 17.6134ZM25.1185 24.687C24.4425 27.4221 19.8211 25.9445 18.3278 25.5672L19.5382 20.71C21.0315 21.0873 25.8415 21.8261 25.1185 24.687ZM25.8101 17.5662C25.1813 20.0655 21.3459 18.7923 20.1041 18.4779L21.2044 14.0766C22.4462 14.391 26.4546 14.9726 25.8101 17.5662Z" fill="white"/>
</g>
<defs>
<linearGradient id="paint0_linear_331_223" x1="20.5741" y1="-0.00953572" x2="20.5741" y2="40.2369" gradientUnits="userSpaceOnUse">
<stop stop-color="#9AC099"/>
<stop offset="1" stop-color="#01BB00"/>
</linearGradient>
<clipPath id="clip0_331_223">
<rect width="40.2408" height="40.2408" fill="white" transform="translate(0.464355)"/>
</clipPath>
</defs>
</svg>
