<svg width="41" height="41" viewBox="0 0 41 41" fill="none" xmlns="http://www.w3.org/2000/svg">
<circle cx="20.1688" cy="20.1204" r="20.1204" fill="#FAFAFA"/>
<g clip-path="url(#clip0_328_108)">
<path d="M39.6878 24.9862C36.9995 35.7708 26.073 42.3266 15.3039 39.6381C4.519 36.9498 -2.0368 26.0238 0.651633 15.2548C3.33991 4.47029 14.2505 -2.08551 25.0354 0.602928C35.8045 3.27549 42.3762 14.2015 39.6878 24.9862Z" fill="url(#paint0_linear_328_108)"/>
<path d="M29.7483 17.6134C30.1412 14.9411 28.1135 13.495 25.3155 12.5361L26.2272 8.905L24.0265 8.35483L23.1463 11.8916C22.5646 11.7502 21.9673 11.6087 21.37 11.4829L22.2503 7.93042L20.0496 7.38025L19.1536 10.9956C18.6663 10.8856 18.1947 10.7756 17.7389 10.6655V10.6498L14.6894 9.8953L14.1078 12.2532C14.1078 12.2532 15.7426 12.6304 15.7111 12.6461C16.6071 12.8662 16.7643 13.4635 16.7329 13.9351L15.6954 18.0692C15.7583 18.0849 15.8369 18.1007 15.9312 18.1478C15.8526 18.1321 15.774 18.1164 15.6954 18.0849L14.2493 23.8696C14.1392 24.1368 13.8563 24.5455 13.2432 24.3883C13.259 24.4197 11.6399 23.9953 11.6399 23.9953L10.5396 26.5261L13.4161 27.2492C13.9506 27.3906 14.4693 27.5164 14.988 27.6579L14.0763 31.3204L16.277 31.8706L17.1887 28.2395C17.786 28.3967 18.3834 28.5538 18.9493 28.6953L18.0533 32.3107L20.2539 32.8609L21.1656 29.1983C24.9382 29.9057 27.7677 29.6227 28.9466 26.2117C29.9055 23.4766 28.8994 21.889 26.9188 20.8515C28.3807 20.5214 29.4653 19.5625 29.7483 17.6134ZM24.7024 24.687C24.0265 27.4221 19.4051 25.9445 17.9118 25.5672L19.1222 20.71C20.6155 21.0873 25.4255 21.8261 24.7024 24.687ZM25.3941 17.5662C24.7653 20.0655 20.9299 18.7923 19.6881 18.4779L20.7884 14.0766C22.0302 14.391 26.0386 14.9726 25.3941 17.5662Z" fill="white"/>
</g>
<defs>
<linearGradient id="paint0_linear_328_108" x1="20.1584" y1="-0.00953572" x2="20.1584" y2="40.2369" gradientUnits="userSpaceOnUse">
<stop stop-color="#F9AA4B"/>
<stop offset="1" stop-color="#F7931A"/>
</linearGradient>
<clipPath id="clip0_328_108">
<rect width="40.2408" height="40.2408" fill="white" transform="translate(0.0483398)"/>
</clipPath>
</defs>
</svg>
