<svg width="41" height="41" viewBox="0 0 41 41" fill="none" xmlns="http://www.w3.org/2000/svg">
<path d="M20.8445 0C31.9594 0 40.965 9.01102 40.965 20.1204C40.965 31.2353 31.9539 40.2408 20.8445 40.2408C9.73514 40.2408 0.724121 31.2353 0.724121 20.1204C0.724121 9.01102 9.73514 0 20.8445 0Z" fill="#F0B90B"/>
<path d="M15.637 17.9618L18.6862 14.9235L19.3256 14.2787L20.8502 12.7595L26.036 17.9618L29.0525 14.9235L20.8502 6.70483L12.6206 14.9235L15.637 17.9618Z" fill="white"/>
<path d="M20.8543 17.0847L17.825 20.114L20.8543 23.1434L23.8837 20.114L20.8543 17.0847Z" fill="white"/>
<path d="M26.036 22.2898L20.8502 27.4756L19.025 25.6559L18.6917 25.3171L15.637 22.2898L12.6206 25.3062L20.8502 33.5249L29.0525 25.3062L26.036 22.2898Z" fill="white"/>
<path d="M10.4629 17.0956L7.43359 20.125L10.4629 23.1544L13.4923 20.125L10.4629 17.0956Z" fill="white"/>
<path d="M31.2264 17.0936L28.197 20.1229L31.2264 23.1523L34.2557 20.1229L31.2264 17.0936Z" fill="white"/>
</svg>
