<svg width="45" height="45" viewBox="0 0 45 45" fill="none" xmlns="http://www.w3.org/2000/svg">
<path d="M13 13H31" stroke="black" stroke-width="3" stroke-linecap="round" stroke-linejoin="round"/>
<path d="M12 20H32" stroke="black" stroke-width="3" stroke-linecap="round" stroke-linejoin="round"/>
<path d="M25.6364 20V27.7C25.6364 28.5752 25.9668 29.4146 26.555 30.0335C27.1432 30.6523 27.9409 31 28.7727 31H34V27.7M19.3636 20V22.2C19.3636 24.5339 18.4825 26.7722 16.914 28.4225C15.3455 30.0729 13.2182 31 11 31" stroke="black" stroke-width="3" stroke-linecap="round" stroke-linejoin="round"/>
<path d="M22.5 0C18.0499 0 13.6998 1.3196 9.99968 3.79193C6.29957 6.26426 3.41569 9.77828 1.71272 13.8896C0.00974905 18.001 -0.435826 22.525 0.432341 26.8895C1.30051 31.2541 3.44343 35.2632 6.59011 38.4099C9.73679 41.5566 13.7459 43.6995 18.1105 44.5677C22.475 45.4358 26.999 44.9903 31.1104 43.2873C35.2217 41.5843 38.7357 38.7004 41.2081 35.0003C43.6804 31.3002 45 26.9501 45 22.5C45 16.5326 42.6295 10.8097 38.4099 6.5901C34.1903 2.37053 28.4674 0 22.5 0ZM22.5 40.9091C18.859 40.9091 15.2998 39.8294 12.2725 37.8066C9.24511 35.7838 6.88557 32.9087 5.49223 29.5448C4.09889 26.181 3.73432 22.4796 4.44464 18.9086C5.15496 15.3375 6.90826 12.0574 9.48281 9.48281C12.0574 6.90825 15.3376 5.15495 18.9086 4.44463C22.4796 3.73432 26.181 4.09888 29.5449 5.49222C32.9087 6.88556 35.7838 9.2451 37.8066 12.2725C39.8294 15.2998 40.9091 18.859 40.9091 22.5C40.9091 27.3824 38.9696 32.0648 35.5172 35.5172C32.0648 38.9696 27.3824 40.9091 22.5 40.9091Z" fill="black"/>
</svg>
