<svg width="41" height="41" viewBox="0 0 41 41" fill="none" xmlns="http://www.w3.org/2000/svg">
<g clip-path="url(#clip0_334_104)">
<path d="M35.0584 34.348C42.9158 26.4906 42.9158 13.7511 35.0584 5.8937C27.201 -1.96374 14.4615 -1.96374 6.6041 5.8937C-1.25333 13.7511 -1.25333 26.4906 6.6041 34.348C14.4615 42.2054 27.201 42.2054 35.0584 34.348Z" fill="#C2A633"/>
<path d="M20.5911 9.24055H14.3342V18.9292H11.7659V21.3008H14.3342V30.9894H21.6184C21.6184 30.9894 31.8644 31.8473 31.8644 20.2953C31.8699 8.93453 22.0665 9.24055 20.5911 9.24055ZM21.4545 26.9675H18.4381V21.3008H22.9627V18.9292H18.4381V13.257H21.3124C22.3889 13.257 27.7988 13.6887 27.8043 20.3718C27.8097 27.0549 22.2305 26.9675 21.4545 26.9675Z" fill="white"/>
</g>
<defs>
<clipPath id="clip0_334_104">
<rect width="40.2408" height="40.2408" fill="white" transform="translate(0.710938)"/>
</clipPath>
</defs>
</svg>
