<svg width="39" height="39" viewBox="0 0 39 39" fill="none" xmlns="http://www.w3.org/2000/svg">
<path d="M36.1695 27.475V9.925C36.1695 8.3065 34.863 7 33.2445 7H5.925C4.3065 7 3 8.3065 3 9.925V27.475C3 29.0935 4.3065 30.4 5.925 30.4H33.2445C34.863 30.4 36.1695 29.0935 36.1695 27.475ZM33.615 9.7105C34.2585 10.354 33.9075 11.017 33.5565 11.3485L25.6395 18.6025L33.2445 26.5195C33.4785 26.7925 33.6345 27.2215 33.3615 27.514C33.108 27.826 32.523 27.8065 32.2695 27.6115L23.748 20.338L19.575 24.1405L15.4215 20.338L6.9 27.6115C6.6465 27.8065 6.0615 27.826 5.808 27.514C5.535 27.2215 5.691 26.7925 5.925 26.5195L13.53 18.6025L5.613 11.3485C5.262 11.017 4.911 10.354 5.5545 9.7105C6.198 9.067 6.861 9.379 7.407 9.847L19.575 19.675L31.7625 9.847C32.3085 9.379 32.9715 9.067 33.615 9.7105Z" fill="#0D0D2B"/>
</svg>
