<svg width="41" height="41" viewBox="0 0 41 41" fill="none" xmlns="http://www.w3.org/2000/svg">
<path d="M40.6091 20.12C40.6091 31.1737 31.6486 40.1345 20.595 40.1345C9.54127 40.1345 0.580566 31.1737 0.580566 20.12C0.580566 9.06641 9.54127 0.105713 20.595 0.105713C31.6484 0.105713 40.6091 9.06641 40.6091 20.12Z" fill="#2FBCB3" fill-opacity="0.52"/>
<path d="M20.5306 10.8337L20.407 11.2539V23.4466L20.5306 23.57L26.1903 20.2246L20.5306 10.8337Z" fill="white"/>
<path d="M20.5308 10.8337L14.8711 20.2246L20.5308 23.57V17.6521V10.8337Z" fill="white"/>
<path d="M20.5304 25.411L20.4607 25.4959V29.8392L20.5304 30.0427L26.1935 22.0673L20.5304 25.411Z" fill="white"/>
<path d="M20.5308 30.0427V25.411L14.8711 22.0673L20.5308 30.0427Z" fill="white"/>
<path d="M20.531 23.5709L26.1906 20.2256L20.531 17.6531V23.5709Z" fill="white"/>
<path d="M14.8711 20.2254L20.5307 23.5709V17.653L14.8711 20.2254Z" fill="white"/>
</svg>
