<svg width="46" height="46" viewBox="0 0 46 46" fill="none" xmlns="http://www.w3.org/2000/svg">
<path d="M22.9999 0.0834961C18.4674 0.0834961 14.0367 1.42753 10.2681 3.94565C6.49949 6.46377 3.5622 10.0429 1.82769 14.2303C0.0931815 18.4178 -0.360645 23.0256 0.5236 27.471C1.40784 31.9164 3.59045 35.9997 6.7954 39.2047C10.0004 42.4097 14.0837 44.5922 18.5291 45.4765C22.9745 46.3607 27.5823 45.9069 31.7698 44.1724C35.9572 42.4379 39.5363 39.5006 42.0544 35.732C44.5726 31.9634 45.9166 27.5327 45.9166 23.0002C45.9166 16.9223 43.5022 11.0933 39.2045 6.79563C34.9068 2.49792 29.0778 0.0834961 22.9999 0.0834961V0.0834961ZM22.9999 41.7502C19.2915 41.7502 15.6664 40.6505 12.583 38.5902C9.49957 36.5299 7.09633 33.6016 5.67719 30.1755C4.25804 26.7494 3.88673 22.9794 4.61021 19.3422C5.33368 15.7051 7.11944 12.3641 9.74168 9.74191C12.3639 7.11968 15.7048 5.33391 19.342 4.61044C22.9791 3.88697 26.7491 4.25828 30.1752 5.67742C33.6014 7.09656 36.5297 9.4998 38.59 12.5832C40.6503 15.6666 41.7499 19.2918 41.7499 23.0002C41.7499 27.973 39.7745 32.7421 36.2582 36.2584C32.7419 39.7747 27.9727 41.7502 22.9999 41.7502V41.7502ZM24.2291 13.9793C25.2987 14.0066 26.3476 14.2802 27.2943 14.7789C28.241 15.2775 29.0599 15.9877 29.6874 16.8543C30.022 17.2931 30.5171 17.5813 31.0639 17.6555C31.6107 17.7297 32.1646 17.5839 32.6041 17.2502C32.8228 17.0828 33.0061 16.8737 33.1435 16.635C33.2808 16.3964 33.3695 16.1328 33.4044 15.8596C33.4393 15.5865 33.4196 15.3091 33.3466 15.0436C33.2736 14.778 33.1487 14.5296 32.9791 14.3127C31.9655 12.9395 30.6486 11.819 29.1308 11.0385C27.6131 10.2579 25.9356 9.83841 24.2291 9.81266C21.8433 9.88209 19.537 10.6855 17.6245 12.1134C15.7119 13.5413 14.2862 15.5242 13.5416 17.7918H10.4999C9.94739 17.7918 9.41749 18.0113 9.02679 18.402C8.63609 18.7927 8.4166 19.3226 8.4166 19.8752C8.4166 20.4277 8.63609 20.9576 9.02679 21.3483C9.41749 21.739 9.94739 21.9585 10.4999 21.9585H12.5833C12.5833 22.3127 12.5833 22.646 12.5833 23.0002C12.5833 23.3543 12.5833 23.6877 12.5833 24.0418H10.4999C9.94739 24.0418 9.41749 24.2613 9.02679 24.652C8.63609 25.0427 8.4166 25.5726 8.4166 26.1252C8.4166 26.6777 8.63609 27.2076 9.02679 27.5983C9.41749 27.989 9.94739 28.2085 10.4999 28.2085H13.5416C14.2862 30.4762 15.7119 32.4591 17.6245 33.8869C19.537 35.3148 21.8433 36.1182 24.2291 36.1877C25.9356 36.1619 27.6131 35.7424 29.1308 34.9619C30.6486 34.1813 31.9655 33.0608 32.9791 31.6877C33.2032 31.4794 33.3787 31.2242 33.4931 30.9404C33.6075 30.6567 33.6579 30.3511 33.6409 30.0456C33.6238 29.7401 33.5397 29.4421 33.3945 29.1728C33.2492 28.9035 33.0465 28.6695 32.8006 28.4874C32.5547 28.3053 32.2717 28.1796 31.9717 28.1193C31.6718 28.0589 31.3622 28.0654 31.065 28.1382C30.7678 28.211 30.4903 28.3484 30.2522 28.5406C30.0141 28.7328 29.8213 28.975 29.6874 29.2502C29.0599 30.1168 28.241 30.827 27.2943 31.3256C26.3476 31.8243 25.2987 32.0979 24.2291 32.1252C22.9578 32.0749 21.7231 31.6852 20.6533 30.9964C19.5835 30.3077 18.7177 29.345 18.1458 28.2085H22.9999C23.5525 28.2085 24.0824 27.989 24.4731 27.5983C24.8638 27.2076 25.0833 26.6777 25.0833 26.1252C25.0833 25.5726 24.8638 25.0427 24.4731 24.652C24.0824 24.2613 23.5525 24.0418 22.9999 24.0418H16.8541C16.7988 23.697 16.764 23.3491 16.7499 23.0002C16.764 22.6512 16.7988 22.3033 16.8541 21.9585H22.9999C23.5525 21.9585 24.0824 21.739 24.4731 21.3483C24.8638 20.9576 25.0833 20.4277 25.0833 19.8752C25.0833 19.3226 24.8638 18.7927 24.4731 18.402C24.0824 18.0113 23.5525 17.7918 22.9999 17.7918H18.1458C18.7315 16.6748 19.6034 15.7332 20.6722 15.0634C21.7409 14.3936 22.9684 14.0195 24.2291 13.9793V13.9793Z" fill="black"/>
</svg>
