<svg width="93" height="93" viewBox="0 0 93 93" fill="none" xmlns="http://www.w3.org/2000/svg">
<path d="M31.8652 47.5422L17.0807 32.7577C11.2603 39.1026 9.05466 45.4591 9.01637 45.5893L8.61047 46.7993L9.01254 48.0094C9.09678 48.2659 17.881 73.6037 47.1093 73.6037C50.6666 73.6037 53.9061 73.2132 56.8814 72.5584L46.3664 62.0434C42.5804 61.8578 38.9988 60.2704 36.3185 57.5901C33.6382 54.9098 32.0508 51.3282 31.8652 47.5422ZM47.1093 19.9949C40.0061 19.9949 34.1857 21.5419 29.3341 23.8165L15.1469 9.62927L9.73243 15.0438L78.6581 83.9694L84.0726 78.5549L71.4439 65.9262C81.5453 58.4478 85.1486 48.1702 85.2022 48.0094L85.6042 46.7993L85.2022 45.5893C85.1179 45.3327 76.3376 19.9949 47.1093 19.9949ZM54.4077 48.8901C55.1238 46.2977 54.5149 43.3799 52.5238 41.3848C50.5326 39.3898 47.6109 38.7848 45.0185 39.5009L39.2441 33.7264C41.6104 32.2713 44.3314 31.495 47.1093 31.4825C55.5565 31.4825 62.4261 38.3521 62.4261 46.7993C62.4147 49.5767 61.6369 52.2971 60.1783 54.6607L54.4077 48.8901Z" fill="#2FBCB3"/>
</svg>
