<svg width="46" height="37" viewBox="0 0 46 37" fill="none" xmlns="http://www.w3.org/2000/svg">
<g clip-path="url(#clip0_232_27)">
<path d="M6.9 6.89999V23C6.9 25.5372 8.96281 27.6 11.5 27.6H41.4C43.9372 27.6 46 25.5372 46 23V6.89999C46 4.3628 43.9372 2.29999 41.4 2.29999H11.5C8.96281 2.29999 6.9 4.3628 6.9 6.89999ZM11.5 18.4C14.0372 18.4 16.1 20.4628 16.1 23H11.5V18.4ZM16.1 6.89999C16.1 9.43718 14.0372 11.5 11.5 11.5V6.89999H16.1ZM41.4 18.4V23H36.8C36.8 20.4628 38.8628 18.4 41.4 18.4ZM36.8 6.89999H41.4V11.5C38.8628 11.5 36.8 9.43718 36.8 6.89999ZM32.2 14.95C32.2 18.1269 29.6269 20.7 26.45 20.7C23.2731 20.7 20.7 18.1269 20.7 14.95C20.7 11.7731 23.2731 9.19999 26.45 9.19999C29.6269 9.19999 32.2 11.7731 32.2 14.95ZM3.45 8.62499C3.45 7.66905 2.68094 6.89999 1.725 6.89999C0.769062 6.89999 0 7.66905 0 8.62499V25.875C0 30.6403 3.85969 34.5 8.625 34.5H37.375C38.3309 34.5 39.1 33.7309 39.1 32.775C39.1 31.819 38.3309 31.05 37.375 31.05H8.625C5.76437 31.05 3.45 28.7356 3.45 25.875V8.62499Z" fill="white"/>
</g>
<defs>
<clipPath id="clip0_232_27">
<rect width="46" height="36.8" fill="white"/>
</clipPath>
</defs>
</svg>
