<svg width="48" height="37" viewBox="0 0 48 37" fill="none" xmlns="http://www.w3.org/2000/svg">
<g clip-path="url(#clip0_232_36)">
<path d="M40.125 2.94688C39.42 2.27125 39.42 1.17875 40.125 0.510314C40.83 -0.158124 41.97 -0.165311 42.6675 0.510314L47.4675 5.11031C47.805 5.43375 47.9925 5.87219 47.9925 6.33219C47.9925 6.79219 47.805 7.23063 47.4675 7.55406L42.6675 12.1541C41.9625 12.8297 40.8225 12.8297 40.125 12.1541C39.4275 11.4784 39.42 10.3859 40.125 9.7175L41.85 8.06437L28.8 8.05C27.8025 8.05 27 7.28094 27 6.325C27 5.36906 27.8025 4.6 28.8 4.6H41.8575L40.125 2.94688ZM7.875 27.0969L6.15 28.75H19.2C20.1975 28.75 21 29.5191 21 30.475C21 31.4309 20.1975 32.2 19.2 32.2H6.1425L7.8675 33.8531C8.5725 34.5287 8.5725 35.6212 7.8675 36.2897C7.1625 36.9581 6.0225 36.9653 5.325 36.2897L0.525 31.6969C0.1875 31.3734 0 30.935 0 30.475C0 30.015 0.1875 29.5766 0.525 29.2531L5.325 24.6531C6.03 23.9775 7.17 23.9775 7.8675 24.6531C8.565 25.3287 8.5725 26.4212 7.8675 27.0897L7.875 27.0969ZM7.2 4.6H25.3425C25.065 5.1175 24.9 5.69969 24.9 6.325C24.9 8.38781 26.6475 10.0625 28.8 10.0625H37.605C37.305 11.2844 37.65 12.6141 38.64 13.57C40.1625 15.0291 42.63 15.0291 44.1525 13.57L45.6 12.1828V27.6C45.6 30.1372 43.4475 32.2 40.8 32.2H22.6575C22.935 31.6825 23.1 31.1003 23.1 30.475C23.1 28.4122 21.3525 26.7375 19.2 26.7375H10.395C10.695 25.5156 10.35 24.1859 9.36 23.23C7.8375 21.7709 5.37 21.7709 3.8475 23.23L2.4 24.6172V9.2C2.4 6.66281 4.5525 4.6 7.2 4.6ZM12 9.2H7.2V13.8C9.8475 13.8 12 11.7372 12 9.2ZM40.8 23C38.1525 23 36 25.0628 36 27.6H40.8V23ZM24 25.3C27.975 25.3 31.2 22.2094 31.2 18.4C31.2 14.5906 27.975 11.5 24 11.5C20.025 11.5 16.8 14.5906 16.8 18.4C16.8 22.2094 20.025 25.3 24 25.3Z" fill="white"/>
</g>
<defs>
<clipPath id="clip0_232_36">
<rect width="48" height="36.8" fill="white"/>
</clipPath>
</defs>
</svg>
