<svg width="48" height="48" viewBox="0 0 48 48" fill="none" xmlns="http://www.w3.org/2000/svg">
<path d="M22 4L36.596 8.56C37.0031 8.68709 37.3589 8.94096 37.6115 9.28458C37.8641 9.62819 38.0002 10.0435 38 10.47V14H42C42.5304 14 43.0391 14.2107 43.4142 14.5858C43.7893 14.9609 44 15.4696 44 16V20H18V16C18 15.4696 18.2107 14.9609 18.5858 14.5858C18.9609 14.2107 19.4696 14 20 14H34V11.94L22 8.188L10 11.94V26.748C9.99971 27.9725 10.2805 29.1806 10.8207 30.2795C11.361 31.3783 12.1462 32.3385 13.116 33.086L13.494 33.358L22 39.16L29.564 34H20C19.4696 34 18.9609 33.7893 18.5858 33.4142C18.2107 33.0391 18 32.5304 18 32V24H44V32C44 32.5304 43.7893 33.0391 43.4142 33.4142C43.0391 33.7893 42.5304 34 42 34L35.56 34.002C34.786 35.022 33.846 35.922 32.76 36.662L22 44L11.24 36.664C9.62504 35.5629 8.3035 34.084 7.39028 32.3558C6.47706 30.6277 5.9998 28.7026 6 26.748V10.47C6.00024 10.0439 6.13657 9.62898 6.38912 9.28577C6.64168 8.94256 6.99724 8.68898 7.404 8.562L22 4Z" fill="white"/>
</svg>
