<svg width="45" height="45" viewBox="0 0 45 45" fill="none" xmlns="http://www.w3.org/2000/svg">
<path d="M22.5 0C18.0499 0 13.6998 1.3196 9.99968 3.79193C6.29957 6.26426 3.41569 9.77828 1.71272 13.8896C0.00974905 18.001 -0.435826 22.525 0.432341 26.8895C1.30051 31.2541 3.44343 35.2632 6.59011 38.4099C9.73679 41.5566 13.7459 43.6995 18.1105 44.5677C22.475 45.4358 26.999 44.9903 31.1104 43.2873C35.2217 41.5843 38.7357 38.7004 41.2081 35.0003C43.6804 31.3002 45 26.9501 45 22.5C45 16.5326 42.6295 10.8097 38.4099 6.5901C34.1903 2.37053 28.4674 0 22.5 0ZM22.5 40.9091C18.859 40.9091 15.2998 39.8294 12.2725 37.8066C9.24511 35.7838 6.88557 32.9087 5.49223 29.5448C4.09889 26.181 3.73432 22.4796 4.44464 18.9086C5.15496 15.3375 6.90826 12.0574 9.48281 9.48281C12.0574 6.90825 15.3376 5.15495 18.9086 4.44463C22.4796 3.73432 26.181 4.09888 29.5449 5.49222C32.9087 6.88556 35.7838 9.2451 37.8066 12.2725C39.8294 15.2998 40.9091 18.859 40.9091 22.5C40.9091 27.3824 38.9696 32.0648 35.5172 35.5172C32.0648 38.9696 27.3824 40.9091 22.5 40.9091Z" fill="black"/>
<path d="M14 21H25" stroke="black" stroke-width="3" stroke-linecap="round" stroke-linejoin="round"/>
<path d="M32 33H14C15.3427 33 16.6303 32.4582 17.5797 31.4937C18.5291 30.5292 19.0625 29.2211 19.0625 27.8571V15.2857C19.0625 14.0425 19.4254 12.8272 20.1053 11.7936C20.7852 10.7599 21.7515 9.95423 22.8821 9.47847C24.0128 9.00272 25.2569 8.87825 26.4571 9.12078C27.6574 9.36332 28.7599 9.96197 29.6252 10.841" stroke="black" stroke-width="3" stroke-linecap="round" stroke-linejoin="round"/>
</svg>
