<svg width="41" height="41" viewBox="0 0 41 41" fill="none" xmlns="http://www.w3.org/2000/svg">
<path d="M20.3514 0C31.4608 0 40.4718 9.01102 40.4718 20.1204C40.4718 31.2298 31.4608 40.2408 20.3514 40.2408C9.24198 40.2408 0.230957 31.2353 0.230957 20.1204C0.230957 9.00556 9.23651 0 20.3514 0Z" fill="#53AE94"/>
<path d="M22.8378 17.4372V14.4426H29.6848V9.87976H11.0399V14.4426H17.8869V17.4318C12.324 17.6886 8.13818 18.787 8.13818 20.1094C8.13818 21.4318 12.324 22.5302 17.8869 22.787V32.3773H22.8378V22.7925C28.3898 22.5356 32.5647 21.4373 32.5647 20.1148C32.5647 18.7979 28.3898 17.6995 22.8378 17.4372ZM22.8378 21.9782C22.6957 21.9837 21.9799 22.0274 20.3842 22.0274C19.1055 22.0274 18.2093 21.9892 17.8924 21.9728V21.9782C12.9798 21.7597 9.30759 20.9072 9.30759 19.8799C9.30759 18.8525 12.9743 18.0001 17.8924 17.7815V21.1258C18.2148 21.1476 19.1328 21.2023 20.4061 21.2023C21.9307 21.2023 22.7012 21.1367 22.8432 21.1258V17.7815C27.7504 18.0001 31.4116 18.858 31.4116 19.8799C31.4062 20.9017 27.7395 21.7597 22.8378 21.9782Z" fill="white"/>
</svg>
