<svg width="45" height="45" viewBox="0 0 45 45" fill="none" xmlns="http://www.w3.org/2000/svg">
<path d="M20.4546 16.3636H28.6364C29.1789 16.3636 29.6991 16.1481 30.0827 15.7645C30.4663 15.3809 30.6818 14.8607 30.6818 14.3182C30.6818 13.7757 30.4663 13.2554 30.0827 12.8718C29.6991 12.4882 29.1789 12.2727 28.6364 12.2727H24.5455V10.2273C24.5455 9.68478 24.33 9.16451 23.9464 8.78092C23.5628 8.39732 23.0425 8.18182 22.5 8.18182C21.9575 8.18182 21.4372 8.39732 21.0537 8.78092C20.6701 9.16451 20.4546 9.68478 20.4546 10.2273V12.2727C18.8271 12.2727 17.2663 12.9192 16.1155 14.07C14.9647 15.2208 14.3182 16.7816 14.3182 18.4091C14.3182 20.0366 14.9647 21.5974 16.1155 22.7482C17.2663 23.8989 18.8271 24.5455 20.4546 24.5455H24.5455C25.0879 24.5455 25.6082 24.761 25.9918 25.1446C26.3754 25.5281 26.5909 26.0484 26.5909 26.5909C26.5909 27.1334 26.3754 27.6537 25.9918 28.0373C25.6082 28.4209 25.0879 28.6364 24.5455 28.6364H16.3636C15.8212 28.6364 15.3009 28.8519 14.9173 29.2355C14.5337 29.6191 14.3182 30.1393 14.3182 30.6818C14.3182 31.2243 14.5337 31.7446 14.9173 32.1282C15.3009 32.5118 15.8212 32.7273 16.3636 32.7273H20.4546V34.7727C20.4546 35.3152 20.6701 35.8355 21.0537 36.2191C21.4372 36.6027 21.9575 36.8182 22.5 36.8182C23.0425 36.8182 23.5628 36.6027 23.9464 36.2191C24.33 35.8355 24.5455 35.3152 24.5455 34.7727V32.7273C26.1729 32.7273 27.7337 32.0808 28.8845 30.93C30.0353 29.7792 30.6818 28.2184 30.6818 26.5909C30.6818 24.9634 30.0353 23.4026 28.8845 22.2518C27.7337 21.101 26.1729 20.4545 24.5455 20.4545H20.4546C19.9121 20.4545 19.3918 20.239 19.0082 19.8554C18.6246 19.4718 18.4091 18.9516 18.4091 18.4091C18.4091 17.8666 18.6246 17.3463 19.0082 16.9627C19.3918 16.5791 19.9121 16.3636 20.4546 16.3636V16.3636ZM22.5 0C18.0499 0 13.6998 1.3196 9.99968 3.79193C6.29957 6.26426 3.41569 9.77828 1.71272 13.8896C0.00974897 18.001 -0.435826 22.525 0.432341 26.8895C1.30051 31.2541 3.44343 35.2632 6.59011 38.4099C9.73679 41.5566 13.7459 43.6995 18.1105 44.5677C22.475 45.4358 26.999 44.9903 31.1104 43.2873C35.2217 41.5843 38.7357 38.7004 41.2081 35.0003C43.6804 31.3002 45 26.9501 45 22.5C45 16.5326 42.6295 10.8097 38.4099 6.5901C34.1903 2.37053 28.4674 0 22.5 0V0ZM22.5 40.9091C18.859 40.9091 15.2998 39.8294 12.2725 37.8066C9.24511 35.7838 6.88557 32.9087 5.49223 29.5449C4.09889 26.181 3.73432 22.4796 4.44464 18.9086C5.15496 15.3375 6.90826 12.0574 9.48281 9.48281C12.0574 6.90825 15.3376 5.15495 18.9086 4.44463C22.4796 3.73432 26.181 4.09888 29.5449 5.49222C32.9087 6.88556 35.7838 9.2451 37.8066 12.2725C39.8294 15.2998 40.9091 18.859 40.9091 22.5C40.9091 27.3824 38.9696 32.0648 35.5172 35.5172C32.0648 38.9696 27.3824 40.9091 22.5 40.9091V40.9091Z" fill="black"/>
</svg>
