<svg width="41" height="41" viewBox="0 0 41 41" fill="none" xmlns="http://www.w3.org/2000/svg">
<path d="M20.3382 40.2408C31.4913 40.2408 40.4586 31.2735 40.4586 20.1204C40.4586 8.9673 31.4913 0 20.3382 0C9.18508 0 0.217773 8.9673 0.217773 20.1204C0.217773 31.2735 9.18508 40.2408 20.3382 40.2408Z" fill="#2775CA"/>
<path d="M25.8738 23.3061C25.8738 20.3716 24.1142 19.3662 20.5896 18.9454C18.0759 18.6121 17.5731 17.9399 17.5731 16.765C17.5731 15.5902 18.4147 14.8361 20.0868 14.8361C21.595 14.8361 22.4366 15.3388 22.8519 16.5956C22.9338 16.847 23.1852 17.0164 23.442 17.0164H24.7863C25.1251 17.0164 25.3765 16.765 25.3765 16.4262V16.3443C25.0431 14.4973 23.5295 13.0765 21.606 12.9071V10.8961C21.606 10.5628 21.3546 10.306 20.9338 10.224H19.677C19.3436 10.224 19.0868 10.4754 19.0048 10.8961V12.8251C16.4912 13.1585 14.8955 14.8361 14.8955 16.9344C14.8955 19.6995 16.5731 20.7924 20.0923 21.2077C22.442 21.6285 23.1961 22.1312 23.1961 23.47C23.1961 24.8088 22.0213 25.7324 20.4311 25.7324C18.2507 25.7324 17.4966 24.8088 17.2453 23.552C17.1633 23.2187 16.9119 23.0493 16.6551 23.0493H15.2288C14.8955 23.0493 14.6387 23.3006 14.6387 23.6394V23.7214C14.972 25.8198 16.3163 27.328 19.0813 27.7433V29.7543C19.0813 30.0876 19.3327 30.3444 19.7535 30.4264H21.0103C21.3437 30.4264 21.6005 30.175 21.6825 29.7543V27.7433C24.1961 27.328 25.8738 25.5684 25.8738 23.3061Z" fill="white"/>
<path d="M16.0649 32.1094C9.52385 29.7597 6.17409 22.47 8.6058 16.0109C9.86265 12.4918 12.6277 9.80868 16.0649 8.55183C16.3982 8.38243 16.5676 8.13106 16.5676 7.71029V6.53542C16.5676 6.20208 16.3982 5.94525 16.0649 5.86328C15.9829 5.86328 15.8135 5.86328 15.7316 5.94525C7.76973 8.45894 3.40903 16.929 5.92272 24.8908C7.43093 29.5848 11.0375 33.1914 15.7316 34.6996C16.0649 34.869 16.4037 34.6996 16.4857 34.3663C16.5676 34.2843 16.5676 34.1969 16.5676 34.033V32.8581C16.5676 32.6122 16.3163 32.2788 16.0649 32.1094ZM24.9502 5.95071C24.6169 5.78131 24.2781 5.95071 24.1961 6.28405C24.1142 6.36602 24.1142 6.45345 24.1142 6.61739V7.79226C24.1142 8.1256 24.3655 8.4644 24.6169 8.6338C31.1579 10.9836 34.5077 18.2732 32.076 24.7323C30.8191 28.2515 28.0541 30.9346 24.6169 32.1914C24.2836 32.3608 24.1142 32.6122 24.1142 33.033V34.2078C24.1142 34.5412 24.2836 34.798 24.6169 34.88C24.6989 34.88 24.8683 34.88 24.9502 34.798C32.9121 32.2843 37.2728 23.8143 34.7591 15.8525C33.2509 11.0655 29.5623 7.45893 24.9502 5.95071Z" fill="white"/>
</svg>
