<svg width="1440" height="572" viewBox="0 0 1440 572" fill="none" xmlns="http://www.w3.org/2000/svg">
<path opacity="0.2" fill-rule="evenodd" clip-rule="evenodd" d="M1508.39 516.811C1476.26 534.349 1418.53 556.667 1349.66 566.667C1280.8 576.668 1200.77 574.355 1124.1 542.593C1100.11 532.657 1083.48 520.459 1072.23 506.684C1060.98 492.907 1055.14 477.579 1052.69 461.418C1048.48 433.62 1054.3 403.307 1059.91 374.151L1059.91 374.136C1060.81 369.439 1061.71 364.772 1062.56 360.151C1065.62 343.471 1068.05 327.377 1067.87 312.54C1067.68 297.708 1064.89 284.166 1057.53 272.571C1042.82 249.395 1009.72 233.776 941.941 231.505C839.941 228.086 770.038 257.969 710.815 283.287C691.368 291.6 673.073 299.421 655.171 305.409C618.965 317.52 584.386 322.109 545.249 307.97C506.138 293.841 462.539 261.032 408.222 198.503C353.976 136.058 308.705 117.513 268.321 123.185C227.878 128.865 192.155 158.843 157.047 193.92C148.566 202.393 140.121 211.163 131.657 219.954C105.13 247.506 78.4093 275.258 49.7718 294.687C30.8704 307.511 11.1022 316.734 -10.0378 319.892C-31.185 323.052 -53.6732 320.137 -78 308.734L-77.5756 307.829C-53.4152 319.154 -31.1253 322.032 -10.1856 318.903C10.7613 315.774 30.3889 306.629 49.2103 293.86C77.7529 274.495 104.368 246.852 130.879 219.32C139.357 210.515 147.824 201.721 156.34 193.212C191.436 158.147 227.371 127.926 268.182 122.195C309.051 116.455 354.631 135.286 408.977 197.847C463.25 260.324 506.713 292.985 545.589 307.03C584.439 321.065 618.772 316.53 654.854 304.461C672.656 298.506 690.888 290.711 710.293 282.415L710.294 282.415C769.545 257.084 839.729 227.078 941.975 230.505C1009.81 232.779 1043.38 248.412 1058.37 272.035C1065.87 283.838 1068.68 297.582 1068.87 312.528C1069.05 327.469 1066.6 343.644 1063.54 360.331C1062.69 364.963 1061.79 369.633 1060.89 374.329L1060.88 374.366C1055.28 403.536 1049.49 433.655 1053.68 461.268C1056.11 477.281 1061.89 492.435 1073.01 506.052C1084.13 519.672 1100.61 531.781 1124.48 541.669C1200.94 573.344 1280.78 575.661 1349.52 565.678C1418.26 555.694 1475.89 533.414 1507.91 515.933L1508.39 516.811ZM1369.87 526.261C1438.73 516.261 1496.46 493.943 1528.59 476.405L1528.11 475.527C1496.09 493.008 1438.47 515.288 1369.72 525.272C1300.98 535.255 1221.15 532.938 1144.68 501.263C1120.81 491.375 1104.33 479.266 1093.21 465.646C1082.09 452.029 1076.31 436.875 1073.88 420.862C1069.7 393.249 1075.48 363.13 1081.09 333.96L1081.09 333.923C1082 329.227 1082.89 324.557 1083.74 319.925C1086.81 303.238 1089.25 287.063 1089.07 272.122C1088.89 257.176 1086.07 243.432 1078.58 231.629C1063.58 208.006 1030.02 192.373 962.178 190.099C859.932 186.672 789.748 216.678 730.497 242.009L730.496 242.009C711.091 250.305 692.859 258.1 675.057 264.055C638.975 276.124 604.642 280.659 565.792 266.624C526.916 252.579 483.453 219.918 429.18 157.441C374.834 94.8803 329.254 76.049 288.385 81.7889C247.574 87.5204 211.639 117.741 176.543 152.806C168.027 161.315 159.56 170.109 151.082 178.914C124.571 206.447 97.9559 234.089 69.4133 253.454C50.5919 266.223 30.9642 275.368 10.0174 278.497C-10.9223 281.626 -33.2122 278.748 -57.3726 267.423L-57.797 268.328C-33.4702 279.731 -10.982 282.646 10.1651 279.486C31.3052 276.328 51.0734 267.105 69.9747 254.281C98.6123 234.852 125.333 207.1 151.86 179.548C160.324 170.757 168.769 161.987 177.25 153.514C212.358 118.437 248.081 88.4591 288.524 82.7791C328.908 77.1075 374.179 95.6517 428.425 158.097C482.742 220.626 526.341 253.435 565.452 267.564C604.589 281.703 639.168 277.114 675.374 265.003C693.276 259.015 711.571 251.194 731.018 242.881C790.241 217.563 860.144 187.68 962.144 191.099C1029.92 193.37 1063.02 208.989 1077.73 232.165C1085.09 243.76 1087.89 257.302 1088.07 272.134C1088.25 286.971 1085.82 303.065 1082.76 319.745C1081.91 324.361 1081.02 329.023 1080.12 333.715L1080.11 333.729L1080.11 333.745C1074.51 362.901 1068.68 393.214 1072.89 421.012C1075.34 437.173 1081.19 452.501 1092.44 466.279C1103.68 480.053 1120.32 492.251 1144.3 502.187C1220.98 533.949 1301 536.262 1369.87 526.261ZM1548.79 435.999C1516.67 453.537 1458.93 475.855 1390.07 485.855C1321.2 495.856 1241.18 493.543 1164.5 461.781C1140.52 451.845 1123.89 439.647 1112.64 425.873C1101.39 412.095 1095.55 396.767 1093.1 380.606C1088.88 352.808 1094.71 322.495 1100.31 293.339L1100.32 293.323L1100.32 293.309C1101.22 288.617 1102.12 283.955 1102.96 279.339C1106.03 262.659 1108.46 246.565 1108.27 231.728C1108.09 216.896 1105.3 203.354 1097.94 191.759C1083.22 168.583 1050.12 152.964 982.347 150.693C880.347 147.274 810.444 177.157 751.221 202.475C731.774 210.788 713.479 218.609 695.577 224.597C659.37 236.708 624.792 241.297 585.655 227.158C546.544 213.029 502.945 180.22 448.628 117.691C394.382 55.2457 349.111 36.7015 308.727 42.3732C268.284 48.0532 232.561 78.0307 197.453 113.108C188.972 121.581 180.527 130.351 172.063 139.142C145.536 166.694 118.815 194.446 90.1777 213.875C71.2764 226.699 51.5082 235.922 30.3681 239.08C9.22095 242.24 -13.2672 239.325 -37.594 227.922L-37.1696 227.017C-13.0092 238.342 9.28064 241.22 30.2204 238.091C51.1672 234.962 70.7949 225.817 89.6163 213.048C118.159 193.683 144.774 166.041 171.285 138.508L171.285 138.507C179.763 129.702 188.23 120.909 196.746 112.401C231.842 77.3354 267.777 47.1144 308.588 41.3829C349.457 35.6431 395.037 54.4743 449.383 117.035C503.656 179.512 547.119 212.173 585.995 226.218C624.845 240.253 659.177 235.718 695.26 223.649C713.062 217.694 731.294 209.9 750.699 201.603L750.7 201.603C809.951 176.272 880.135 146.266 982.381 149.693C1050.22 151.967 1083.79 167.6 1098.78 191.223C1106.27 203.026 1109.09 216.771 1109.27 231.716C1109.46 246.657 1107.01 262.832 1103.95 279.519C1103.1 284.151 1102.2 288.822 1101.3 293.517L1101.29 293.554C1095.69 322.724 1089.9 352.843 1094.09 380.456C1096.51 396.469 1102.29 411.623 1113.41 425.24C1124.53 438.86 1141.02 450.969 1164.89 460.857C1241.35 492.532 1321.18 494.849 1389.93 484.866C1458.67 474.882 1516.29 452.602 1548.31 435.121L1548.79 435.999ZM1569 395.593C1536.87 413.131 1479.13 435.449 1410.27 445.449C1341.41 455.45 1261.38 453.137 1184.71 421.375C1160.72 411.439 1144.09 399.241 1132.84 385.467C1121.59 371.689 1115.75 356.361 1113.3 340.2C1109.09 312.402 1114.91 282.089 1120.52 252.933L1120.52 252.919L1120.52 252.907L1120.52 252.89C1121.43 248.203 1122.32 243.545 1123.17 238.933C1126.23 222.253 1128.66 206.159 1128.48 191.322C1128.29 176.49 1125.5 162.948 1118.14 151.353C1103.43 128.177 1070.32 112.558 1002.55 110.287C900.55 106.868 830.647 136.751 771.424 162.069C751.977 170.382 733.682 178.203 715.78 184.191C679.573 196.302 644.995 200.891 605.858 186.752C566.747 172.623 523.148 139.814 468.831 77.2849C414.585 14.8397 369.314 -3.70447 328.93 1.96716C288.487 7.64722 252.764 37.6248 217.655 72.7019C209.175 81.175 200.73 89.9455 192.266 98.7363C165.739 126.288 139.018 154.04 110.381 173.469C91.4794 186.293 71.7112 195.516 50.5711 198.674C29.4239 201.834 6.93575 198.919 -17.391 187.516L-16.9666 186.611C7.19379 197.936 29.4836 200.814 50.4234 197.685C71.3702 194.556 90.9979 185.411 109.819 172.642C138.362 153.277 164.977 125.635 191.488 98.1017C199.966 89.2967 208.433 80.5028 216.949 71.9945C252.045 36.9294 287.98 6.7085 328.791 0.976929C369.66 -4.76294 415.24 14.0684 469.586 76.6292C523.859 139.106 567.322 171.767 606.198 185.812C645.048 199.847 679.38 195.312 715.463 183.243C733.265 177.288 751.497 169.494 770.902 161.197L770.903 161.197C830.154 135.866 900.338 105.86 1002.58 109.287C1070.42 111.561 1103.99 127.194 1118.98 150.817C1126.47 162.62 1129.29 176.365 1129.48 191.31C1129.66 206.251 1127.21 222.426 1124.15 239.113C1123.3 243.745 1122.4 248.416 1121.5 253.111L1121.49 253.148C1115.89 282.318 1110.1 312.437 1114.29 340.05C1116.72 356.063 1122.5 371.217 1133.62 384.834C1144.74 398.454 1161.22 410.563 1185.09 420.451C1261.55 452.126 1341.39 454.443 1410.13 444.46C1478.87 434.476 1536.5 412.196 1568.52 394.715L1569 395.593Z" fill="url(#paint0_linear_441_97)"/>
<defs>
<linearGradient id="paint0_linear_441_97" x1="111.402" y1="145.149" x2="1554.9" y2="145.149" gradientUnits="userSpaceOnUse">
<stop stop-color="#2FBCB3" stop-opacity="0.18"/>
<stop offset="0.5" stop-color="#175754" stop-opacity="0.46"/>
<stop offset="1" stop-color="#2FBCB3" stop-opacity="0.43"/>
</linearGradient>
</defs>
</svg>
