<svg width="39" height="39" viewBox="0 0 39 39" fill="none" xmlns="http://www.w3.org/2000/svg">
<path d="M32.7597 11.1149C28.0797 3.89991 18.5247 1.75491 11.1147 6.23991C3.89969 10.7249 1.55969 20.4749 6.23969 27.6899L6.62969 28.2749L5.06969 34.1249L10.9197 32.5649L11.5047 32.9549C14.0397 34.3199 16.7697 35.0999 19.4997 35.0999C22.4247 35.0999 25.3497 34.3199 27.8847 32.7599C35.0997 28.0799 37.2447 18.5249 32.7597 11.1149ZM28.6647 26.1299C27.8847 27.2999 26.9097 28.0799 25.5447 28.2749C24.7647 28.2749 23.7897 28.6649 19.8897 27.1049C16.5747 25.5449 13.8447 23.0099 11.8947 20.0849C10.7247 18.7199 10.1397 16.9649 9.94469 15.2099C9.94469 13.6499 10.5297 12.2849 11.5047 11.3099C11.8947 10.9199 12.2847 10.7249 12.6747 10.7249H13.6497C14.0397 10.7249 14.4297 10.7249 14.6247 11.5049C15.0147 12.4799 15.9897 14.8199 15.9897 15.0149C16.1847 15.2099 16.1847 15.5999 15.9897 15.7949C16.1847 16.1849 15.9897 16.5749 15.7947 16.7699C15.5997 16.9649 15.4047 17.3549 15.2097 17.5499C14.8197 17.7449 14.6247 18.1349 14.8197 18.5249C15.5997 19.6949 16.5747 20.8649 17.5497 21.8399C18.7197 22.8149 19.8897 23.5949 21.2547 24.1799C21.6447 24.3749 22.0347 24.3749 22.2297 23.9849C22.4247 23.5949 23.3997 22.6199 23.7897 22.2299C24.1797 21.8399 24.3747 21.8399 24.7647 22.0349L27.8847 23.5949C28.2747 23.7899 28.6647 23.9849 28.8597 24.1799C29.0547 24.7649 29.0547 25.5449 28.6647 26.1299Z" fill="#0D0D2B"/>
</svg>
